TITLE ""
FILE "Step4_Track18.mp3" MP3
  TRACK 01 AUDIO
    TITLE "Step4_Track18_01"
    INDEX 01 00:00:00
  TRACK 02 AUDIO
    TITLE "Step4_Track18_02"
    INDEX 01 00:00:24
  TRACK 03 AUDIO
    TITLE "Step4_Track18_03"
    INDEX 01 00:01:67
  TRACK 04 AUDIO
    TITLE "Step4_Track18_04"
    INDEX 01 00:02:43
  TRACK 05 AUDIO
    TITLE "Step4_Track18_05"
    INDEX 01 00:03:40
  TRACK 06 AUDIO
    TITLE "Step4_Track18_06"
    INDEX 01 00:03:54
  TRACK 07 AUDIO
    TITLE "Step4_Track18_07"
    INDEX 01 00:05:08
  TRACK 08 AUDIO
    TITLE "Step4_Track18_08"
    INDEX 01 00:05:41
  TRACK 09 AUDIO
    TITLE "Step4_Track18_09"
    INDEX 01 00:06:36
  TRACK 10 AUDIO
    TITLE "Step4_Track18_10"
    INDEX 01 00:06:40
  TRACK 11 AUDIO
    TITLE "Step4_Track18_11"
    INDEX 01 00:08:39
  TRACK 12 AUDIO
    TITLE "Step4_Track18_12"
    INDEX 01 00:08:61
  TRACK 13 AUDIO
    TITLE "Step4_Track18_13"
    INDEX 01 00:09:54
  TRACK 14 AUDIO
    TITLE "Step4_Track18_14"
    INDEX 01 00:09:64
  TRACK 15 AUDIO
    TITLE "Step4_Track18_15"
    INDEX 01 00:11:65
  TRACK 16 AUDIO
    TITLE "Step4_Track18_16"
    INDEX 01 00:12:02
  TRACK 17 AUDIO
    TITLE "Step4_Track18_17"
    INDEX 01 00:12:68
  TRACK 18 AUDIO
    TITLE "Step4_Track18_18"
    INDEX 01 00:13:05
  TRACK 19 AUDIO
    TITLE "Step4_Track18_19"
    INDEX 01 00:14:61
  TRACK 20 AUDIO
    TITLE "Step4_Track18_20"
    INDEX 01 00:15:08
  TRACK 21 AUDIO
    TITLE "Step4_Track18_21"
    INDEX 01 00:15:75
  TRACK 22 AUDIO
    TITLE "Step4_Track18_22"
    INDEX 01 00:16:09
  TRACK 23 AUDIO
    TITLE "Step4_Track18_23"
    INDEX 01 00:17:62
  TRACK 24 AUDIO
    TITLE "Step4_Track18_24"
    INDEX 01 00:17:73
  TRACK 25 AUDIO
    TITLE "Step4_Track18_25"
    INDEX 01 00:19:02
  TRACK 26 AUDIO
    TITLE "Step4_Track18_26"
    INDEX 01 00:19:15
  TRACK 27 AUDIO
    TITLE "Step4_Track18_27"
    INDEX 01 00:20:60
  TRACK 28 AUDIO
    TITLE "Step4_Track18_28"
    INDEX 01 00:20:66
  TRACK 29 AUDIO
    TITLE "Step4_Track18_29"
    INDEX 01 00:21:69
  TRACK 30 AUDIO
    TITLE "Step4_Track18_30"
    INDEX 01 00:22:02
  TRACK 31 AUDIO
    TITLE "Step4_Track18_31"
    INDEX 01 00:24:09
  TRACK 32 AUDIO
    TITLE "Step4_Track18_32"
    INDEX 01 00:24:17
  TRACK 33 AUDIO
    TITLE "Step4_Track18_33"
    INDEX 01 00:25:06
  TRACK 34 AUDIO
    TITLE "Step4_Track18_34"
    INDEX 01 00:25:16
  TRACK 35 AUDIO
    TITLE "Step4_Track18_35"
    INDEX 01 00:27:05
  TRACK 36 AUDIO
    TITLE "Step4_Track18_36"
    INDEX 01 00:27:23
  TRACK 37 AUDIO
    TITLE "Step4_Track18_37"
    INDEX 01 00:28:26
  TRACK 38 AUDIO
    TITLE "Step4_Track18_38"
    INDEX 01 00:28:28
  TRACK 39 AUDIO
    TITLE "Step4_Track18_39"
    INDEX 01 00:30:02
  TRACK 40 AUDIO
    TITLE "Step4_Track18_40"
    INDEX 01 00:30:19
  TRACK 41 AUDIO
    TITLE "Step4_Track18_41"
    INDEX 01 00:31:15
  TRACK 42 AUDIO
    TITLE "Step4_Track18_42"
    INDEX 01 00:31:25
  TRACK 43 AUDIO
    TITLE "Step4_Track18_43"
    INDEX 01 00:33:04
